<mxfile host="app.diagrams.net" agent="Mozilla/5.0 (Windows NT 10.0; Win64; x64) AppleWebKit/537.36 (KHTML, like Gecko) Chrome/134.0.0.0 Safari/537.36 Edg/134.0.0.0" version="26.1.0">
  <diagram name="Page-1" id="e7e014a7-5840-1c2e-5031-d8a46d1fe8dd">
    <mxGraphModel dx="956" dy="1341" grid="1" gridSize="10" guides="1" tooltips="1" connect="1" arrows="1" fold="1" page="1" pageScale="1" pageWidth="1169" pageHeight="826" background="none" math="0" shadow="0">
      <root>
        <mxCell id="0" />
        <mxCell id="1" parent="0" />
        <mxCell id="2" value="Transaction" style="swimlane;whiteSpace=wrap" parent="1" vertex="1">
          <mxGeometry x="110" y="-20" width="950" height="1130" as="geometry" />
        </mxCell>
        <mxCell id="iK2pyCChLxRGbPqHeI8x-42" style="edgeStyle=orthogonalEdgeStyle;rounded=0;orthogonalLoop=1;jettySize=auto;html=1;exitX=0.5;exitY=1;exitDx=0;exitDy=0;entryX=0.5;entryY=0;entryDx=0;entryDy=0;strokeColor=#FF0000;" edge="1" parent="2" source="5" target="iK2pyCChLxRGbPqHeI8x-41">
          <mxGeometry relative="1" as="geometry" />
        </mxCell>
        <mxCell id="5" value="" style="ellipse;shape=startState;fillColor=#000000;strokeColor=#ff0000;" parent="2" vertex="1">
          <mxGeometry x="365" y="58" width="30" height="30" as="geometry" />
        </mxCell>
        <mxCell id="iK2pyCChLxRGbPqHeI8x-44" value="" style="edgeStyle=orthogonalEdgeStyle;rounded=0;orthogonalLoop=1;jettySize=auto;html=1;strokeColor=#FF0000;" edge="1" parent="2" source="iK2pyCChLxRGbPqHeI8x-41" target="iK2pyCChLxRGbPqHeI8x-43">
          <mxGeometry relative="1" as="geometry" />
        </mxCell>
        <mxCell id="iK2pyCChLxRGbPqHeI8x-45" value="Retrait" style="edgeLabel;html=1;align=center;verticalAlign=middle;resizable=0;points=[];" vertex="1" connectable="0" parent="iK2pyCChLxRGbPqHeI8x-44">
          <mxGeometry x="0.6975" y="5" relative="1" as="geometry">
            <mxPoint x="-5" y="5" as="offset" />
          </mxGeometry>
        </mxCell>
        <mxCell id="iK2pyCChLxRGbPqHeI8x-76" style="edgeStyle=orthogonalEdgeStyle;rounded=0;orthogonalLoop=1;jettySize=auto;html=1;exitX=0.5;exitY=1;exitDx=0;exitDy=0;entryX=0.5;entryY=0;entryDx=0;entryDy=0;strokeColor=#FF0000;" edge="1" parent="2" source="iK2pyCChLxRGbPqHeI8x-41" target="iK2pyCChLxRGbPqHeI8x-63">
          <mxGeometry relative="1" as="geometry" />
        </mxCell>
        <mxCell id="iK2pyCChLxRGbPqHeI8x-77" value="Dépôt" style="edgeLabel;html=1;align=center;verticalAlign=middle;resizable=0;points=[];" vertex="1" connectable="0" parent="iK2pyCChLxRGbPqHeI8x-76">
          <mxGeometry x="-0.2814" y="-3" relative="1" as="geometry">
            <mxPoint as="offset" />
          </mxGeometry>
        </mxCell>
        <mxCell id="iK2pyCChLxRGbPqHeI8x-92" style="edgeStyle=orthogonalEdgeStyle;rounded=0;orthogonalLoop=1;jettySize=auto;html=1;exitX=1;exitY=0.5;exitDx=0;exitDy=0;strokeColor=#FF0000;entryX=0.5;entryY=0;entryDx=0;entryDy=0;" edge="1" parent="2" source="iK2pyCChLxRGbPqHeI8x-41" target="iK2pyCChLxRGbPqHeI8x-79">
          <mxGeometry relative="1" as="geometry">
            <mxPoint x="650" y="210" as="targetPoint" />
          </mxGeometry>
        </mxCell>
        <mxCell id="iK2pyCChLxRGbPqHeI8x-93" value="Virement" style="edgeLabel;html=1;align=center;verticalAlign=middle;resizable=0;points=[];" vertex="1" connectable="0" parent="iK2pyCChLxRGbPqHeI8x-92">
          <mxGeometry x="0.7291" y="-2" relative="1" as="geometry">
            <mxPoint as="offset" />
          </mxGeometry>
        </mxCell>
        <mxCell id="iK2pyCChLxRGbPqHeI8x-41" value="Type de transaction" style="rhombus;whiteSpace=wrap;html=1;" vertex="1" parent="2">
          <mxGeometry x="327.5" y="120" width="105" height="50" as="geometry" />
        </mxCell>
        <mxCell id="iK2pyCChLxRGbPqHeI8x-48" value="" style="edgeStyle=orthogonalEdgeStyle;rounded=0;orthogonalLoop=1;jettySize=auto;html=1;strokeColor=#FF0000;" edge="1" parent="2" source="iK2pyCChLxRGbPqHeI8x-43" target="iK2pyCChLxRGbPqHeI8x-47">
          <mxGeometry relative="1" as="geometry" />
        </mxCell>
        <mxCell id="iK2pyCChLxRGbPqHeI8x-43" value="Choisir dans quel compte retirer" style="whiteSpace=wrap;html=1;" vertex="1" parent="2">
          <mxGeometry x="40" y="220" width="120" height="60" as="geometry" />
        </mxCell>
        <mxCell id="iK2pyCChLxRGbPqHeI8x-50" value="" style="edgeStyle=orthogonalEdgeStyle;rounded=0;orthogonalLoop=1;jettySize=auto;html=1;strokeColor=#FF0000;" edge="1" parent="2" source="iK2pyCChLxRGbPqHeI8x-47" target="iK2pyCChLxRGbPqHeI8x-49">
          <mxGeometry relative="1" as="geometry" />
        </mxCell>
        <mxCell id="iK2pyCChLxRGbPqHeI8x-47" value="Choisir le montant à retirer" style="whiteSpace=wrap;html=1;" vertex="1" parent="2">
          <mxGeometry x="40" y="320" width="120" height="60" as="geometry" />
        </mxCell>
        <mxCell id="iK2pyCChLxRGbPqHeI8x-53" value="" style="edgeStyle=orthogonalEdgeStyle;rounded=0;orthogonalLoop=1;jettySize=auto;html=1;strokeColor=#FF0000;" edge="1" parent="2" source="iK2pyCChLxRGbPqHeI8x-49" target="iK2pyCChLxRGbPqHeI8x-52">
          <mxGeometry relative="1" as="geometry" />
        </mxCell>
        <mxCell id="iK2pyCChLxRGbPqHeI8x-60" value="Oui" style="edgeLabel;html=1;align=center;verticalAlign=middle;resizable=0;points=[];" vertex="1" connectable="0" parent="iK2pyCChLxRGbPqHeI8x-53">
          <mxGeometry x="-0.2934" y="2" relative="1" as="geometry">
            <mxPoint as="offset" />
          </mxGeometry>
        </mxCell>
        <mxCell id="iK2pyCChLxRGbPqHeI8x-59" style="edgeStyle=orthogonalEdgeStyle;rounded=0;orthogonalLoop=1;jettySize=auto;html=1;exitX=1;exitY=0.5;exitDx=0;exitDy=0;entryX=1;entryY=0.5;entryDx=0;entryDy=0;strokeColor=#FF0000;" edge="1" parent="2" source="iK2pyCChLxRGbPqHeI8x-49" target="iK2pyCChLxRGbPqHeI8x-54">
          <mxGeometry relative="1" as="geometry">
            <Array as="points">
              <mxPoint x="230" y="458" />
              <mxPoint x="230" y="680" />
            </Array>
          </mxGeometry>
        </mxCell>
        <mxCell id="iK2pyCChLxRGbPqHeI8x-61" value="Non" style="edgeLabel;html=1;align=center;verticalAlign=middle;resizable=0;points=[];" vertex="1" connectable="0" parent="iK2pyCChLxRGbPqHeI8x-59">
          <mxGeometry x="-0.3387" y="-1" relative="1" as="geometry">
            <mxPoint as="offset" />
          </mxGeometry>
        </mxCell>
        <mxCell id="iK2pyCChLxRGbPqHeI8x-49" value="C&#39;est la troisième ou plus transaction du compte check" style="rhombus;whiteSpace=wrap;html=1;" vertex="1" parent="2">
          <mxGeometry x="20" y="413" width="160" height="90" as="geometry" />
        </mxCell>
        <mxCell id="iK2pyCChLxRGbPqHeI8x-55" value="" style="edgeStyle=orthogonalEdgeStyle;rounded=0;orthogonalLoop=1;jettySize=auto;html=1;strokeColor=#FF0000;" edge="1" parent="2" source="iK2pyCChLxRGbPqHeI8x-52" target="iK2pyCChLxRGbPqHeI8x-54">
          <mxGeometry relative="1" as="geometry" />
        </mxCell>
        <mxCell id="iK2pyCChLxRGbPqHeI8x-52" value="Ajouter 5$ de frais" style="whiteSpace=wrap;html=1;" vertex="1" parent="2">
          <mxGeometry x="40" y="560" width="120" height="60" as="geometry" />
        </mxCell>
        <mxCell id="iK2pyCChLxRGbPqHeI8x-57" value="" style="edgeStyle=orthogonalEdgeStyle;rounded=0;orthogonalLoop=1;jettySize=auto;html=1;strokeColor=#FF0000;" edge="1" parent="2" source="iK2pyCChLxRGbPqHeI8x-54" target="iK2pyCChLxRGbPqHeI8x-56">
          <mxGeometry relative="1" as="geometry" />
        </mxCell>
        <mxCell id="iK2pyCChLxRGbPqHeI8x-54" value="Soumettre la transaction" style="whiteSpace=wrap;html=1;" vertex="1" parent="2">
          <mxGeometry x="40" y="650" width="120" height="60" as="geometry" />
        </mxCell>
        <mxCell id="iK2pyCChLxRGbPqHeI8x-100" style="edgeStyle=orthogonalEdgeStyle;rounded=0;orthogonalLoop=1;jettySize=auto;html=1;exitX=0.5;exitY=1;exitDx=0;exitDy=0;strokeColor=#FF0000;" edge="1" parent="2" source="iK2pyCChLxRGbPqHeI8x-56">
          <mxGeometry relative="1" as="geometry">
            <mxPoint x="380" y="970" as="targetPoint" />
            <Array as="points">
              <mxPoint x="100" y="940" />
              <mxPoint x="380" y="940" />
            </Array>
          </mxGeometry>
        </mxCell>
        <mxCell id="iK2pyCChLxRGbPqHeI8x-56" value="Confirmer la transaction à effectuer" style="whiteSpace=wrap;html=1;" vertex="1" parent="2">
          <mxGeometry x="40" y="750" width="120" height="60" as="geometry" />
        </mxCell>
        <mxCell id="iK2pyCChLxRGbPqHeI8x-62" value="" style="edgeStyle=orthogonalEdgeStyle;rounded=0;orthogonalLoop=1;jettySize=auto;html=1;strokeColor=#FF0000;" edge="1" parent="2" source="iK2pyCChLxRGbPqHeI8x-63" target="iK2pyCChLxRGbPqHeI8x-65">
          <mxGeometry relative="1" as="geometry" />
        </mxCell>
        <mxCell id="iK2pyCChLxRGbPqHeI8x-63" value="Choisir dans quel compte déposer" style="whiteSpace=wrap;html=1;" vertex="1" parent="2">
          <mxGeometry x="320" y="220" width="120" height="60" as="geometry" />
        </mxCell>
        <mxCell id="iK2pyCChLxRGbPqHeI8x-64" value="" style="edgeStyle=orthogonalEdgeStyle;rounded=0;orthogonalLoop=1;jettySize=auto;html=1;strokeColor=#FF0000;" edge="1" parent="2" source="iK2pyCChLxRGbPqHeI8x-65" target="iK2pyCChLxRGbPqHeI8x-70">
          <mxGeometry relative="1" as="geometry" />
        </mxCell>
        <mxCell id="iK2pyCChLxRGbPqHeI8x-65" value="Choisir le montant à déposer" style="whiteSpace=wrap;html=1;" vertex="1" parent="2">
          <mxGeometry x="320" y="320" width="120" height="60" as="geometry" />
        </mxCell>
        <mxCell id="iK2pyCChLxRGbPqHeI8x-66" value="" style="edgeStyle=orthogonalEdgeStyle;rounded=0;orthogonalLoop=1;jettySize=auto;html=1;strokeColor=#FF0000;" edge="1" parent="2" source="iK2pyCChLxRGbPqHeI8x-70" target="iK2pyCChLxRGbPqHeI8x-72">
          <mxGeometry relative="1" as="geometry" />
        </mxCell>
        <mxCell id="iK2pyCChLxRGbPqHeI8x-67" value="Oui" style="edgeLabel;html=1;align=center;verticalAlign=middle;resizable=0;points=[];" vertex="1" connectable="0" parent="iK2pyCChLxRGbPqHeI8x-66">
          <mxGeometry x="-0.2934" y="2" relative="1" as="geometry">
            <mxPoint as="offset" />
          </mxGeometry>
        </mxCell>
        <mxCell id="iK2pyCChLxRGbPqHeI8x-68" style="edgeStyle=orthogonalEdgeStyle;rounded=0;orthogonalLoop=1;jettySize=auto;html=1;exitX=1;exitY=0.5;exitDx=0;exitDy=0;entryX=1;entryY=0.5;entryDx=0;entryDy=0;strokeColor=#FF0000;" edge="1" parent="2" source="iK2pyCChLxRGbPqHeI8x-70" target="iK2pyCChLxRGbPqHeI8x-74">
          <mxGeometry relative="1" as="geometry">
            <Array as="points">
              <mxPoint x="510" y="458" />
              <mxPoint x="510" y="680" />
            </Array>
          </mxGeometry>
        </mxCell>
        <mxCell id="iK2pyCChLxRGbPqHeI8x-69" value="Non" style="edgeLabel;html=1;align=center;verticalAlign=middle;resizable=0;points=[];" vertex="1" connectable="0" parent="iK2pyCChLxRGbPqHeI8x-68">
          <mxGeometry x="-0.3387" y="-1" relative="1" as="geometry">
            <mxPoint as="offset" />
          </mxGeometry>
        </mxCell>
        <mxCell id="iK2pyCChLxRGbPqHeI8x-70" value="C&#39;est la troisième ou plus transaction du compte check" style="rhombus;whiteSpace=wrap;html=1;" vertex="1" parent="2">
          <mxGeometry x="300" y="413" width="160" height="90" as="geometry" />
        </mxCell>
        <mxCell id="iK2pyCChLxRGbPqHeI8x-71" value="" style="edgeStyle=orthogonalEdgeStyle;rounded=0;orthogonalLoop=1;jettySize=auto;html=1;strokeColor=#FF0000;" edge="1" parent="2" source="iK2pyCChLxRGbPqHeI8x-72" target="iK2pyCChLxRGbPqHeI8x-74">
          <mxGeometry relative="1" as="geometry" />
        </mxCell>
        <mxCell id="iK2pyCChLxRGbPqHeI8x-72" value="Ajouter 5$ de frais" style="whiteSpace=wrap;html=1;" vertex="1" parent="2">
          <mxGeometry x="320" y="560" width="120" height="60" as="geometry" />
        </mxCell>
        <mxCell id="iK2pyCChLxRGbPqHeI8x-73" value="" style="edgeStyle=orthogonalEdgeStyle;rounded=0;orthogonalLoop=1;jettySize=auto;html=1;strokeColor=#FF0000;" edge="1" parent="2" source="iK2pyCChLxRGbPqHeI8x-74" target="iK2pyCChLxRGbPqHeI8x-75">
          <mxGeometry relative="1" as="geometry" />
        </mxCell>
        <mxCell id="iK2pyCChLxRGbPqHeI8x-74" value="Soumettre la transaction" style="whiteSpace=wrap;html=1;" vertex="1" parent="2">
          <mxGeometry x="320" y="650" width="120" height="60" as="geometry" />
        </mxCell>
        <mxCell id="iK2pyCChLxRGbPqHeI8x-98" style="edgeStyle=orthogonalEdgeStyle;rounded=0;orthogonalLoop=1;jettySize=auto;html=1;exitX=0.5;exitY=1;exitDx=0;exitDy=0;entryX=0.5;entryY=0;entryDx=0;entryDy=0;strokeColor=#FF0000;" edge="1" parent="2" source="iK2pyCChLxRGbPqHeI8x-75" target="iK2pyCChLxRGbPqHeI8x-97">
          <mxGeometry relative="1" as="geometry" />
        </mxCell>
        <mxCell id="iK2pyCChLxRGbPqHeI8x-75" value="Confirmer la transaction à effectuer" style="whiteSpace=wrap;html=1;" vertex="1" parent="2">
          <mxGeometry x="320" y="750" width="120" height="60" as="geometry" />
        </mxCell>
        <mxCell id="iK2pyCChLxRGbPqHeI8x-95" value="" style="edgeStyle=orthogonalEdgeStyle;rounded=0;orthogonalLoop=1;jettySize=auto;html=1;strokeColor=#FF0000;" edge="1" parent="2" source="iK2pyCChLxRGbPqHeI8x-79" target="iK2pyCChLxRGbPqHeI8x-94">
          <mxGeometry relative="1" as="geometry" />
        </mxCell>
        <mxCell id="iK2pyCChLxRGbPqHeI8x-79" value="Choisir dans quel compte retirer" style="whiteSpace=wrap;html=1;" vertex="1" parent="2">
          <mxGeometry x="590" y="220" width="120" height="60" as="geometry" />
        </mxCell>
        <mxCell id="iK2pyCChLxRGbPqHeI8x-80" value="" style="edgeStyle=orthogonalEdgeStyle;rounded=0;orthogonalLoop=1;jettySize=auto;html=1;strokeColor=#FF0000;" edge="1" parent="2" source="iK2pyCChLxRGbPqHeI8x-81" target="iK2pyCChLxRGbPqHeI8x-86">
          <mxGeometry relative="1" as="geometry" />
        </mxCell>
        <mxCell id="iK2pyCChLxRGbPqHeI8x-81" value="Choisir le montant à déposer" style="whiteSpace=wrap;html=1;" vertex="1" parent="2">
          <mxGeometry x="590" y="420" width="120" height="60" as="geometry" />
        </mxCell>
        <mxCell id="iK2pyCChLxRGbPqHeI8x-82" value="" style="edgeStyle=orthogonalEdgeStyle;rounded=0;orthogonalLoop=1;jettySize=auto;html=1;strokeColor=#FF0000;" edge="1" parent="2" source="iK2pyCChLxRGbPqHeI8x-86" target="iK2pyCChLxRGbPqHeI8x-88">
          <mxGeometry relative="1" as="geometry" />
        </mxCell>
        <mxCell id="iK2pyCChLxRGbPqHeI8x-83" value="Oui" style="edgeLabel;html=1;align=center;verticalAlign=middle;resizable=0;points=[];" vertex="1" connectable="0" parent="iK2pyCChLxRGbPqHeI8x-82">
          <mxGeometry x="-0.2934" y="2" relative="1" as="geometry">
            <mxPoint as="offset" />
          </mxGeometry>
        </mxCell>
        <mxCell id="iK2pyCChLxRGbPqHeI8x-84" style="edgeStyle=orthogonalEdgeStyle;rounded=0;orthogonalLoop=1;jettySize=auto;html=1;exitX=1;exitY=0.5;exitDx=0;exitDy=0;entryX=1;entryY=0.5;entryDx=0;entryDy=0;strokeColor=#FF0000;" edge="1" parent="2" source="iK2pyCChLxRGbPqHeI8x-86" target="iK2pyCChLxRGbPqHeI8x-90">
          <mxGeometry relative="1" as="geometry">
            <Array as="points">
              <mxPoint x="780" y="558" />
              <mxPoint x="780" y="780" />
            </Array>
          </mxGeometry>
        </mxCell>
        <mxCell id="iK2pyCChLxRGbPqHeI8x-85" value="Non" style="edgeLabel;html=1;align=center;verticalAlign=middle;resizable=0;points=[];" vertex="1" connectable="0" parent="iK2pyCChLxRGbPqHeI8x-84">
          <mxGeometry x="-0.3387" y="-1" relative="1" as="geometry">
            <mxPoint as="offset" />
          </mxGeometry>
        </mxCell>
        <mxCell id="iK2pyCChLxRGbPqHeI8x-86" value="C&#39;est la troisième ou plus transaction du compte check" style="rhombus;whiteSpace=wrap;html=1;" vertex="1" parent="2">
          <mxGeometry x="570" y="513" width="160" height="90" as="geometry" />
        </mxCell>
        <mxCell id="iK2pyCChLxRGbPqHeI8x-87" value="" style="edgeStyle=orthogonalEdgeStyle;rounded=0;orthogonalLoop=1;jettySize=auto;html=1;strokeColor=#FF0000;" edge="1" parent="2" source="iK2pyCChLxRGbPqHeI8x-88" target="iK2pyCChLxRGbPqHeI8x-90">
          <mxGeometry relative="1" as="geometry" />
        </mxCell>
        <mxCell id="iK2pyCChLxRGbPqHeI8x-88" value="Ajouter 5$ de frais" style="whiteSpace=wrap;html=1;" vertex="1" parent="2">
          <mxGeometry x="590" y="660" width="120" height="60" as="geometry" />
        </mxCell>
        <mxCell id="iK2pyCChLxRGbPqHeI8x-89" value="" style="edgeStyle=orthogonalEdgeStyle;rounded=0;orthogonalLoop=1;jettySize=auto;html=1;strokeColor=#FF0000;" edge="1" parent="2" source="iK2pyCChLxRGbPqHeI8x-90" target="iK2pyCChLxRGbPqHeI8x-91">
          <mxGeometry relative="1" as="geometry" />
        </mxCell>
        <mxCell id="iK2pyCChLxRGbPqHeI8x-90" value="Soumettre la transaction" style="whiteSpace=wrap;html=1;" vertex="1" parent="2">
          <mxGeometry x="590" y="750" width="120" height="60" as="geometry" />
        </mxCell>
        <mxCell id="iK2pyCChLxRGbPqHeI8x-99" style="edgeStyle=orthogonalEdgeStyle;rounded=0;orthogonalLoop=1;jettySize=auto;html=1;exitX=0.5;exitY=1;exitDx=0;exitDy=0;entryX=0.5;entryY=0;entryDx=0;entryDy=0;strokeColor=#FF0000;" edge="1" parent="2" source="iK2pyCChLxRGbPqHeI8x-91" target="iK2pyCChLxRGbPqHeI8x-97">
          <mxGeometry relative="1" as="geometry" />
        </mxCell>
        <mxCell id="iK2pyCChLxRGbPqHeI8x-91" value="Confirmer la transaction à effectuer" style="whiteSpace=wrap;html=1;" vertex="1" parent="2">
          <mxGeometry x="590" y="850" width="120" height="60" as="geometry" />
        </mxCell>
        <mxCell id="iK2pyCChLxRGbPqHeI8x-96" style="edgeStyle=orthogonalEdgeStyle;rounded=0;orthogonalLoop=1;jettySize=auto;html=1;exitX=0.5;exitY=1;exitDx=0;exitDy=0;strokeColor=#FF0000;" edge="1" parent="2" source="iK2pyCChLxRGbPqHeI8x-94" target="iK2pyCChLxRGbPqHeI8x-81">
          <mxGeometry relative="1" as="geometry" />
        </mxCell>
        <mxCell id="iK2pyCChLxRGbPqHeI8x-94" value="Choisir quel compte déposer" style="whiteSpace=wrap;html=1;" vertex="1" parent="2">
          <mxGeometry x="590" y="320" width="120" height="60" as="geometry" />
        </mxCell>
        <mxCell id="iK2pyCChLxRGbPqHeI8x-97" value="" style="ellipse;html=1;shape=endState;fillColor=#000000;strokeColor=#ff0000;" vertex="1" parent="2">
          <mxGeometry x="365" y="970" width="30" height="30" as="geometry" />
        </mxCell>
      </root>
    </mxGraphModel>
  </diagram>
</mxfile>
